<?xml version="1.0" encoding="iso-8859-1"?>
<!-- Generator: Adobe Illustrator 19.0.0, SVG Export Plug-In . SVG Version: 6.00 Build 0)  -->
<svg version="1.1" id="Layer_1" xmlns="http://www.w3.org/2000/svg" xmlns:xlink="http://www.w3.org/1999/xlink" x="0px" y="0px"
	 viewBox="0 0 329.992 329.992" style="enable-background:new 0 0 329.992 329.992;" xml:space="preserve">
<g id="XMLID_2_">
	<path id="XMLID_4_" d="M164.996,161.535c-27.357,0-49.614,22.257-49.614,49.615s22.257,49.614,49.614,49.614
		s49.614-22.257,49.614-49.614S192.353,161.535,164.996,161.535z"/>
	<path id="XMLID_5_" d="M179.996,24.616V15c0-8.284-6.716-15-15-15s-15,6.716-15,15v9.616
		C89.641,37.013,46.152,122.529,46.152,199.61c0,40.069,11.989,73.553,34.671,96.833c21.079,21.634,50.972,33.549,84.173,33.549
		s63.094-11.915,84.172-33.549c22.683-23.28,34.672-56.764,34.672-96.833C283.84,122.529,240.352,37.013,179.996,24.616z
		 M164.996,299.992c-54.801,0-88.844-38.464-88.844-100.382c0-34.653,10.55-72.647,28.222-101.635
		c17.396-28.534,39.491-44.899,60.622-44.899c21.13,0,43.226,16.365,60.621,44.899c17.672,28.988,28.223,66.982,28.223,101.635
		C253.84,261.528,219.797,299.992,164.996,299.992z"/>
</g>
<g>
</g>
<g>
</g>
<g>
</g>
<g>
</g>
<g>
</g>
<g>
</g>
<g>
</g>
<g>
</g>
<g>
</g>
<g>
</g>
<g>
</g>
<g>
</g>
<g>
</g>
<g>
</g>
<g>
</g>
</svg>
